<svg xmlns="http://www.w3.org/2000/svg" x="0px" y="0px"
     width="80" height="80"
     viewBox="0 0 252 252"
     style="fill:#333333;"><g transform=""><g fill="none" fill-rule="nonzero" stroke="none" stroke-width="1" stroke-linecap="butt" stroke-linejoin="miter" stroke-miterlimit="10" stroke-dasharray="" stroke-dashoffset="0" font-family="none" font-weight="none" font-size="none" text-anchor="none" style="mix-blend-mode: normal"><path d="M0,252v-252h252v252z" fill="none"></path><path d="M126,228.06c-56.36618,0 -102.06,-45.69382 -102.06,-102.06v0c0,-56.36618 45.69382,-102.06 102.06,-102.06v0c56.36618,0 102.06,45.69382 102.06,102.06v0c0,56.36618 -45.69382,102.06 -102.06,102.06z" fill="#ee4444"></path><g id="original-icon" fill="#333333" opacity="0" visibility="hidden"><path d="M126,17.0352c-60.06737,0 -108.9648,48.89743 -108.9648,108.9648c0,60.06737 48.89743,108.9648 108.9648,108.9648c60.06737,0 108.9648,-48.89743 108.9648,-108.9648c0,-60.06737 -48.89743,-108.9648 -108.9648,-108.9648zM126,35.9856c49.82581,0 90.0144,40.18859 90.0144,90.0144c0,49.82581 -40.18859,90.0144 -90.0144,90.0144c-49.82581,0 -90.0144,-40.18859 -90.0144,-90.0144c0,-49.82581 40.18859,-90.0144 90.0144,-90.0144z"></path></g><g id="subtracted-icon" fill="#333333"><path d="M234.9648,126c0,9.67093 -1.26749,19.05231 -3.64502,27.98671c-5.79261,-2.49621 -11.84739,-4.39191 -18.08525,-5.63768c1.81539,-7.14267 2.77987,-14.6302 2.77987,-22.34902c0,-49.82581 -40.18859,-90.0144 -90.0144,-90.0144c-49.82581,0 -90.0144,40.18859 -90.0144,90.0144c0,49.82581 40.18859,90.0144 90.0144,90.0144c10.48937,0 20.55162,-1.78112 29.90172,-5.05831l14.52952,14.52952c-13.57722,6.08997 -28.61712,9.47918 -44.43124,9.47918c-60.06737,0 -108.9648,-48.89743 -108.9648,-108.9648c0,-60.06737 48.89743,-108.9648 108.9648,-108.9648c60.06737,0 108.9648,48.89743 108.9648,108.9648z"></path></g><path d="" fill="none"></path><path d="M126,252c-69.58788,0 -126,-56.41212 -126,-126v0c0,-69.58788 56.41212,-126 126,-126v0c69.58788,0 126,56.41212 126,126v0c0,69.58788 -56.41212,126 -126,126z" fill="none"></path><path d="M126,246.96c-66.80436,0 -120.96,-54.15564 -120.96,-120.96v0c0,-66.80436 54.15564,-120.96 120.96,-120.96h0c66.80436,0 120.96,54.15564 120.96,120.96v0c0,66.80436 -54.15564,120.96 -120.96,120.96z" fill="none"></path><path d="" fill="none"></path><path d="M126,252c-69.58788,0 -126,-56.41212 -126,-126v0c0,-69.58788 56.41212,-126 126,-126v0c69.58788,0 126,56.41212 126,126v0c0,69.58788 -56.41212,126 -126,126z" fill="none"></path><path d="M126,246.96c-66.80436,0 -120.96,-54.15564 -120.96,-120.96v0c0,-66.80436 54.15564,-120.96 120.96,-120.96h0c66.80436,0 120.96,54.15564 120.96,120.96v0c0,66.80436 -54.15564,120.96 -120.96,120.96z" fill="none"></path><path d="M126,202.86c-42.44861,0 -76.86,-34.41139 -76.86,-76.86v0c0,-42.44861 34.41139,-76.86 76.86,-76.86h0c42.44861,0 76.86,34.41139 76.86,76.86v0c0,42.44861 -34.41139,76.86 -76.86,76.86z" fill="none"></path><path d="M126,197.82c-39.66509,0 -71.82,-32.15491 -71.82,-71.82v0c0,-39.66509 32.15491,-71.82 71.82,-71.82v0c39.66509,0 71.82,32.15491 71.82,71.82v0c0,39.66509 -32.15491,71.82 -71.82,71.82z" fill="none"></path><path d="" fill="none"></path><path d="M126,228.06c-56.36618,0 -102.06,-45.69382 -102.06,-102.06v0c0,-56.36618 45.69382,-102.06 102.06,-102.06v0c56.36618,0 102.06,45.69382 102.06,102.06v0c0,56.36618 -45.69382,102.06 -102.06,102.06z" fill="none"></path><path d="M126,223.02c-53.58267,0 -97.02,-43.43733 -97.02,-97.02v0c0,-53.58267 43.43733,-97.02 97.02,-97.02h0c53.58267,0 97.02,43.43733 97.02,97.02v0c0,53.58267 -43.43733,97.02 -97.02,97.02z" fill="none"></path><g fill="#333333"><g><g id="Слой_2" font-family="-apple-system, system-ui, &quot;San Francisco&quot;, HelveticaNeue-Light, &quot;Helvetica Neue Light&quot;, &quot;Helvetica Neue&quot;, &quot;Segoe UI&quot;, &quot;Fira Sans&quot;, Roboto, Oxygen, Ubuntu, &quot;Droid Sans&quot;, Arial, sans-serif" font-weight="300" font-size="16" text-anchor="start" visibility="hidden"></g><g id="Android_x5F_4" font-family="-apple-system, system-ui, &quot;San Francisco&quot;, HelveticaNeue-Light, &quot;Helvetica Neue Light&quot;, &quot;Helvetica Neue&quot;, &quot;Segoe UI&quot;, &quot;Fira Sans&quot;, Roboto, Oxygen, Ubuntu, &quot;Droid Sans&quot;, Arial, sans-serif" font-weight="300" font-size="16" text-anchor="start" visibility="hidden"></g><g id="Android_x5F_5" font-family="-apple-system, system-ui, &quot;San Francisco&quot;, HelveticaNeue-Light, &quot;Helvetica Neue Light&quot;, &quot;Helvetica Neue&quot;, &quot;Segoe UI&quot;, &quot;Fira Sans&quot;, Roboto, Oxygen, Ubuntu, &quot;Droid Sans&quot;, Arial, sans-serif" font-weight="300" font-size="16" text-anchor="start" visibility="hidden"></g><g id="Windows_x5F_8" font-family="-apple-system, system-ui, &quot;San Francisco&quot;, HelveticaNeue-Light, &quot;Helvetica Neue Light&quot;, &quot;Helvetica Neue&quot;, &quot;Segoe UI&quot;, &quot;Fira Sans&quot;, Roboto, Oxygen, Ubuntu, &quot;Droid Sans&quot;, Arial, sans-serif" font-weight="300" font-size="16" text-anchor="start" visibility="hidden"></g><g id="Windows_x5F_10" font-family="-apple-system, system-ui, &quot;San Francisco&quot;, HelveticaNeue-Light, &quot;Helvetica Neue Light&quot;, &quot;Helvetica Neue&quot;, &quot;Segoe UI&quot;, &quot;Fira Sans&quot;, Roboto, Oxygen, Ubuntu, &quot;Droid Sans&quot;, Arial, sans-serif" font-weight="300" font-size="16" text-anchor="start" visibility="hidden"></g><g id="Color" font-family="-apple-system, system-ui, &quot;San Francisco&quot;, HelveticaNeue-Light, &quot;Helvetica Neue Light&quot;, &quot;Helvetica Neue&quot;, &quot;Segoe UI&quot;, &quot;Fira Sans&quot;, Roboto, Oxygen, Ubuntu, &quot;Droid Sans&quot;, Arial, sans-serif" font-weight="300" font-size="16" text-anchor="start" visibility="hidden"></g><g id="IOS" font-family="-apple-system, system-ui, &quot;San Francisco&quot;, HelveticaNeue-Light, &quot;Helvetica Neue Light&quot;, &quot;Helvetica Neue&quot;, &quot;Segoe UI&quot;, &quot;Fira Sans&quot;, Roboto, Oxygen, Ubuntu, &quot;Droid Sans&quot;, Arial, sans-serif" font-weight="300" font-size="16" text-anchor="start" visibility="hidden"></g><g id="IOS_copy"><path d="M195.75288,231.91174c5.52427,0 10.04413,4.51986 10.04413,10.04413c0,5.52427 -4.51986,10.04413 -10.04413,10.04413c-5.52427,0 -10.04413,-4.51986 -10.04413,-10.04413c0,-5.52427 4.51986,-10.04413 10.04413,-10.04413zM216.84555,215.33893c-11.55075,-11.55075 -30.63459,-11.55075 -42.18534,0l7.03089,7.03089c7.5331,-7.5331 20.08826,-7.5331 28.12356,0zM234.42278,197.76171c-21.59488,-21.59488 -56.24712,-21.59488 -77.33979,0l7.03089,7.03089c17.57722,-17.57722 45.70078,-17.57722 63.27801,0zM252,179.68228c-31.1368,-30.63459 -81.35744,-30.63459 -112.49423,0l7.03089,7.03089c27.11915,-27.11915 71.31331,-27.11915 98.43246,0z"></path></g></g></g></g></g></svg>